# xmcd CD database file
#
# Track frame offsets:
#	150
#	77387
#	119064
#
# Disc length: 1834 seconds
#
# Revision: 0
# Processed by: cddbd v1.5PL3 Copyright (c) Steve Scherf et al.
# Submitted via: CDex 1.51
#
DISCID=1c072803
DTITLE=Phish - First Star Center 12-4-99 - Disc 3
DYEAR=1999
DGENRE=Blues
TTITLE0=David Bowie
TTITLE1=Julius
TTITLE2=Tweezer reprise
EXTD=YEAR: 1999
EXTT0=
EXTT1=
EXTT2=
PLAYORDER=
